# xmcd
#
# Track frame offsets: 
#        150
#        28255
#        44114
#        58988
#        81144
#        97316
#        112834
#        133434
#        147878
#
# Disc length: 2359 seconds
#
# Revision: 0
# Processed by: cddbd v1.5.2PL0 Copyright (c) Steve Scherf et al.
# Submitted via: ExactAudioCopy v1.0b3
#
DISCID=8d093509
DTITLE=Roger Tarry - Quiet Town
DYEAR=2012
DGENRE=Folk
TTITLE0=It's Not You
TTITLE1=Cropsy
TTITLE2=When Was
TTITLE3=Quiet Town
TTITLE4=Dying Wish
TTITLE5=Blow
TTITLE6=They Have Never Seen
TTITLE7=Train
TTITLE8=Next Year
EXTD=
EXTT0=
EXTT1=
EXTT2=
EXTT3=
EXTT4=
EXTT5=
EXTT6=
EXTT7=
EXTT8=
PLAYORDER=
